<?xml version="1.0" encoding="UTF-8"?><svg id="Layer_1" xmlns="http://www.w3.org/2000/svg" viewBox="0 0 500 500"><path d="m370.96,171.04l2.88-4.41c.97-1.46,2.03-2.87,3.04-4.3,1.99-2.89,4.24-5.59,6.38-8.37,1.11-1.36,2.27-2.67,3.4-4.01,1.13-1.34,2.27-2.67,3.48-3.93l3.58-3.84c1.22-1.25,2.49-2.46,3.73-3.7l1.87-1.84c.63-.6,1.29-1.18,1.94-1.77l3.89-3.52,4.02-3.36,2.02-1.67,2.08-1.6,4.17-3.18,4.29-3,2.15-1.5,2.21-1.41,4.42-2.81,2.77,12.39c-3.97-.53-7.94-1.07-11.92-1.6-16.26-2.22-32.35-4.55-48.27-4.72-6.41-.07-12.81.17-19.2.68-1.6.11-3.2.26-4.79.43l-4.86.51-9.82,1.05c-6.46.73-12.86,1.56-19.05,2.76-3.09.6-6.13,1.28-8.97,2.15-1.45.4-2.78.91-4.07,1.4l-1.81.8c-.5.29-1,.57-1.5.84l-5.31-12.27c15.47-4.1,31.62-4.87,47.33-2.92,15.72,1.97,31.1,6.65,45.26,13.97,3.6,1.87,5.01,6.3,3.15,9.9-1.49,2.87-4.6,4.35-7.63,3.89l-.12-.02c-14.07-2.16-28.87-.95-42.16,3.7-6.63,2.33-12.87,5.57-18.27,9.72-5.4,4.14-9.92,9.21-13.16,15.01-2.84,5.13-4.89,10.78-6.29,16.76-1.36,6-2.13,12.29-2.58,18.73-.43,6.46-.57,13.07-.73,19.81-.14,6.73-.4,13.76-1.1,20.75-.7,7.02-1.9,14.14-3.92,21.22-1.98,7.07-5.06,14.1-9.35,20.53-4.25,6.45-10.09,12.06-16.4,16.26-6.33,4.25-13.1,7.28-19.85,9.7-6.77,2.39-13.53,4.24-20.46,5.7-6.91,1.45-13.91,2.46-20.95,3.04-14.06,1.18-28.3.51-42.2-1.86-13.81-2.39-26.66-6.01-39.17-7.35-3.11-.33-6.23-.53-9.22-.54-3.01,0-6.01.23-8.96.63-2.95.39-5.82,1.06-8.59,1.91-2.76.86-5.42,1.93-7.83,3.29-2.93,1.62-5.59,3.56-7.85,5.84-1.13,1.14-2.18,2.34-3.09,3.7-1.04,1.26-1.73,2.75-2.59,4.14-1.43,2.96-2.51,6.17-3.24,9.57-.63,3.44-.96,7.01-.98,10.67.03,7.02.57,13.08.78,18.15.23,5.08.25,9.2-.13,12.48-.52,4.78-2.3,5.32-4.82,1.97-.64-.83-1.3-1.92-2-3.24-.71-1.32-1.42-2.89-2.15-4.71-1.43-3.64-2.93-8.25-3.96-13.94-1.34-7.16-1.88-15.11-.75-23.28.14-1.02.38-2.04.58-3.07.21-1.02.4-2.05.73-3.06l.92-3.04c.35-1,.79-1.98,1.19-2.97l.62-1.47c.21-.49.49-.95.74-1.42.51-.94,1.03-1.87,1.54-2.81.56-.9,1.2-1.76,1.8-2.63.61-.87,1.2-1.74,1.92-2.53,3.12-3.75,6.87-6.92,10.89-9.42,4.03-2.51,8.33-4.39,12.69-5.77,8.75-2.74,17.76-3.58,26.59-3.13,8.74.46,17.15,2.02,25.27,3.71,8.12,1.7,16,3.54,23.79,4.73,15.54,2.36,31.46,2.29,46.95-.27,7.74-1.28,15.38-3.15,22.8-5.61,7.38-2.45,14.36-5.55,20.3-9.66,3.25-2.3,6.22-4.86,8.66-7.86,2.5-2.96,4.64-6.26,6.39-9.84,3.44-7.19,5.57-15.24,6.98-23.38,1.18-6.48,1.77-13.23,2.13-20.08.35-6.9.53-14.01.96-21.2.44-7.2,1.15-14.54,2.58-21.92.42-1.84.75-3.69,1.27-5.53l.73-2.76.87-2.74.44-1.37.51-1.36,1.03-2.71,1.19-2.66.6-1.33.67-1.3c3.49-7.03,8.52-13.42,14.35-18.62,5.85-5.22,12.5-9.37,19.5-12.46,14.04-6.18,29.27-8.56,44.23-7.78,3.94.21,7.87.64,11.8,1.31l-4.04,12.09c-12.5-6.71-26.36-11.11-40.52-13.01-14.16-1.89-28.68-1.29-42.4,2.21l-.36.09c-3.25.83-6.56-1.13-7.39-4.38-.7-2.73.58-5.51,2.94-6.81l1.7-.94c.57-.31,1.15-.64,1.69-.85,1.1-.45,2.23-1.01,3.3-1.34,2.17-.79,4.31-1.4,6.43-1.95,4.24-1.08,8.41-1.83,12.56-2.46,9.85-1.5,19.58-2.24,29.15-3.16l3.69-.33,3.7-.24c2.47-.19,4.95-.23,7.42-.34,4.95-.11,9.91-.13,14.85.08,9.89.33,19.66,1.38,29.31,2.55l28.73,3.74h.08c2.84.38,4.84,2.98,4.47,5.81-.21,1.6-1.15,2.95-2.42,3.74-14.89,9.18-28.41,20.64-39.91,33.86-11.54,13.2-20.9,28.3-27.72,44.45-1.57,3.57-2.84,7.22-4.17,10.73l-.09.23c-.83,2.2-3.29,3.3-5.48,2.47-1.95-.74-3.04-2.75-2.68-4.73,2.25-12.61,5.04-24.8,8.68-36.24,3.62-11.44,8.13-22.15,13.66-31.53,1.45-2.5,2.8-4.18,3.84-5.15,1.04-.97,1.78-1.21,2.18-.78.82.89.12,4.34-2.05,10.42-6.09,17.26-9.99,36.25-13.03,55.38-.51,3.24-1.02,6.49-1.54,9.81l-14.78-3.62c2.18-6.4,4.57-12.81,7.58-18.96,1.39-3.13,3.07-6.11,4.63-9.15.8-1.51,1.7-2.97,2.54-4.45.86-1.47,1.68-2.97,2.62-4.39-.04-.08-.07-.16-.11-.25Z"/></svg>